<svg version="1.1" preserveAspectRatio="none" xmlns="http://www.w3.org/2000/svg" width="500" height="500" viewBox="0 0 500 500"><rect width="100%" height="100%" fill="#070707" fill-opacity="1"/><svg viewBox="117.0828 270.1571 352.8435 263.5673" width="333" height="248.74458761462233" x="83.5px" y="125.6277px" xmlns="http://www.w3.org/2000/svg" xmlns:xlink="http://www.w3.org/1999/xlink" preserveAspectRatio="none"><defs></defs><style>.companyName {fill:#F7DC5F;fill-opacity:1;}.icon1 {fill:#F7DC5F;fill-opacity:1;}.icon2 {fill:#8C7848;fill-opacity:1;}.icon3 {fill:#534538;fill-opacity:1;}.icon3-str {stroke:#534538;stroke-opacity:1;}</style><g opacity="1" transform="rotate(0 117.0828 473.7244)">
<svg width="352.8435" height="60" x="117.0828" y="473.7244" version="1.1" preserveAspectRatio="none" viewBox="2.16 -33.2 256.4 43.60000000000001">
  <g transform="matrix(1 0 0 1 0 0)" class="companyName"><path id="id-D6z1nYkh10" d="M2.76 0L2.16-10.20L3.72-10.20Q4.28-6.40 6.76-4.22Q9.24-2.04 12.88-2.04L12.88-2.04Q14.36-2.04 15.60-2.40Q16.84-2.76 17.72-3.42Q18.60-4.08 19.08-4.98Q19.56-5.88 19.56-7L19.56-7Q19.56-7.96 19.26-8.66Q18.96-9.36 18.12-10.02Q17.28-10.68 15.82-11.36Q14.36-12.04 12.04-12.92L12.04-12.92Q7.36-14.72 5.12-17.10Q2.88-19.48 2.88-22.72L2.88-22.72Q2.88-24.60 3.60-26.16Q4.32-27.72 5.62-28.84Q6.92-29.96 8.74-30.58Q10.56-31.20 12.76-31.20L12.76-31.20Q14.80-31.20 16.60-30.56Q18.40-29.92 20.16-28.64L20.16-28.64L20.88-30.64L21.84-30.64L22.28-22L20.72-22Q19.76-25.28 17.72-27.02Q15.68-28.76 13-28.76L13-28.76Q10.52-28.76 8.98-27.54Q7.44-26.32 7.44-24.40L7.44-24.40Q7.44-23.56 7.72-22.90Q8-22.24 8.76-21.64Q9.52-21.04 10.84-20.42Q12.16-19.80 14.24-19.04L14.24-19.04Q17.04-17.96 19.02-16.86Q21-15.76 22.26-14.50Q23.52-13.24 24.12-11.84Q24.72-10.44 24.72-8.76L24.72-8.76Q24.72-6.72 23.84-5.04Q22.96-3.36 21.38-2.16Q19.80-0.96 17.62-0.28Q15.44 0.40 12.80 0.40L12.80 0.40Q10.40 0.40 8.48-0.26Q6.56-0.92 4.52-2.40L4.52-2.40L3.72 0L2.76 0Z M32.20-19L29.28-19L29.28-20.80Q31.68-21.48 33.30-22.86Q34.92-24.24 35.72-26.04L35.72-26.04L37.76-26.04L37.76-21.20L42.36-21.20L42.36-19L37.76-19L37.76-6.72Q37.76-4.24 38.30-3.20Q38.84-2.16 40.12-2.16L40.12-2.16Q41.68-2.16 42.48-3.60L42.48-3.60L43.32-2.44Q42.20 0.40 38.04 0.40L38.04 0.40Q35.28 0.40 33.74-0.88Q32.20-2.16 32.20-4.48L32.20-4.48L32.20-19Z M64.16-10.48L64.16-14.64Q64.16-16.24 64.08-17.18Q64-18.12 63.64-18.62Q63.28-19.12 62.58-19.30Q61.88-19.48 60.68-19.60L60.68-19.60L60.68-21.20L69.72-21.20L69.72-9.08Q69.72-6.64 69.78-5.26Q69.84-3.88 70-3.20L70-3.20Q70.12-2.68 70.28-2.38Q70.44-2.08 70.80-1.90Q71.16-1.72 71.78-1.66Q72.40-1.60 73.40-1.60L73.40-1.60L73.40-0.04L65.44 0.44L65-3.12L64.84-3.12Q63.80-1.44 61.92-0.52Q60.04 0.40 57.72 0.40L57.72 0.40Q53.44 0.40 51.20-2.64L51.20-2.64Q49.48-4.96 49.48-9.24L49.48-9.24L49.48-14.64Q49.48-16.28 49.40-17.22Q49.32-18.16 48.98-18.64Q48.64-19.12 47.96-19.30Q47.28-19.48 46.08-19.60L46.08-19.60L46.08-21.20L55.04-21.20L55.04-9.88Q55.04-5.84 56.04-4.02Q57.04-2.20 59.24-2.20L59.24-2.20Q61.60-2.20 62.88-4.36L62.88-4.36Q64.16-6.44 64.16-10.48L64.16-10.48Z M95.16 0.40L95.16-2.56L95-2.56Q92.24 0.40 87.84 0.40L87.84 0.40Q85.56 0.40 83.66-0.40Q81.76-1.20 80.38-2.64Q79-4.08 78.24-6.06Q77.48-8.04 77.48-10.44L77.48-10.44Q77.48-12.84 78.26-14.88Q79.04-16.92 80.38-18.42Q81.72-19.92 83.58-20.76Q85.44-21.60 87.60-21.60L87.60-21.60Q89.60-21.60 91.14-21Q92.68-20.40 93.84-18.96L93.84-18.96L94-18.96L94-22.36Q94-24.72 93.94-26.42Q93.88-28.12 93.76-28.64L93.76-28.64Q93.56-29.48 92.54-29.86Q91.52-30.24 89.40-30.24L89.40-30.24L89.40-31.60L99.52-33.20L99.52-10.32Q99.52-7.32 99.58-5.70Q99.64-4.08 99.80-3.24L99.80-3.24Q99.88-2.72 100.04-2.40Q100.20-2.08 100.52-1.90Q100.84-1.72 101.38-1.66Q101.92-1.60 102.76-1.60L102.76-1.60L102.76-0.04L95.16 0.40ZM93.92-9.92L93.92-11.48Q93.92-13 93.60-14.30Q93.28-15.60 92.64-16.60L92.64-16.60Q91.92-17.76 90.80-18.36Q89.68-18.96 88.40-18.96L88.40-18.96Q86.04-18.96 84.80-16.80Q83.56-14.64 83.56-10.52L83.56-10.52Q83.56-6.36 84.80-4.12Q86.04-1.88 88.36-1.88L88.36-1.88Q89.68-1.88 90.88-2.56Q92.08-3.24 92.84-4.40L92.84-4.40Q93.40-5.28 93.66-6.58Q93.92-7.88 93.92-9.92L93.92-9.92Z M125.84-12.92L116.68 6.28Q116.24 7.16 115.58 7.92Q114.92 8.68 114.10 9.22Q113.28 9.76 112.40 10.08Q111.52 10.40 110.64 10.40L110.64 10.40Q109.32 10.40 108.52 9.76Q107.72 9.12 107.72 8.04L107.72 8.04Q107.72 7.04 108.42 6.48Q109.12 5.92 110.68 5.80L110.68 5.80Q114.24 5.52 115.28 3.56L115.28 3.56L116.36 1.48L109.28-16.04Q108.80-17.20 108.46-17.88Q108.12-18.56 107.72-18.94Q107.32-19.32 106.80-19.44Q106.28-19.56 105.52-19.60L105.52-19.60L105.52-21.20L117.64-21.20L117.64-19.60Q116.08-19.60 115.46-19.30Q114.84-19 114.84-18.20L114.84-18.20Q114.84-17.88 114.94-17.46Q115.04-17.04 115.20-16.60L115.20-16.60L119.28-4.92L119.44-4.92L122.88-12.72Q123.40-13.96 123.76-14.78Q124.12-15.60 124.30-16.18Q124.48-16.76 124.56-17.12Q124.64-17.48 124.64-17.84L124.64-17.84Q124.64-18.88 124.06-19.24Q123.48-19.60 121.72-19.60L121.72-19.60L121.72-21.20L131.36-21.20L131.36-19.60Q130.56-19.60 130-19.38Q129.44-19.16 128.86-18.48Q128.28-17.80 127.58-16.46Q126.88-15.12 125.84-12.92L125.84-12.92Z M163.84-6.92L162.92-9.32L151.60-9.32Q149.72-5.08 149.72-3.44L149.72-3.44Q149.72-2.24 150.62-1.92Q151.52-1.60 153.32-1.60L153.32-1.60L153.32 0L142.36 0L142.36-1.60Q143.32-1.72 144.02-1.92Q144.72-2.12 145.26-2.48Q145.80-2.84 146.20-3.42Q146.60-4 146.96-4.84L146.96-4.84L157.48-31.20L160.44-31.20L170.00-7.84Q170.84-5.80 171.42-4.64Q172.00-3.48 172.66-2.86Q173.32-2.24 174.18-2Q175.04-1.76 176.40-1.64L176.40-1.64L176.40 0L161.28 0L161.28-1.64Q163.20-1.72 164.04-2.04Q164.88-2.36 164.88-3.32L164.88-3.32Q164.88-3.88 164.60-4.76Q164.32-5.64 163.84-6.92L163.84-6.92ZM157.28-23.84L152.52-11.72L162.04-11.72L157.44-23.84L157.28-23.84Z M195.80 0.40L195.80-2.56L195.64-2.56Q192.88 0.40 188.48 0.40L188.48 0.40Q186.20 0.40 184.30-0.40Q182.40-1.20 181.02-2.64Q179.64-4.08 178.88-6.06Q178.12-8.04 178.12-10.44L178.12-10.44Q178.12-12.84 178.90-14.88Q179.68-16.92 181.02-18.42Q182.36-19.92 184.22-20.76Q186.08-21.60 188.24-21.60L188.24-21.60Q190.24-21.60 191.78-21Q193.32-20.40 194.48-18.96L194.48-18.96L194.64-18.96L194.64-22.36Q194.64-24.72 194.58-26.42Q194.52-28.12 194.40-28.64L194.40-28.64Q194.20-29.48 193.18-29.86Q192.16-30.24 190.04-30.24L190.04-30.24L190.04-31.60L200.16-33.20L200.16-10.32Q200.16-7.32 200.22-5.70Q200.28-4.08 200.44-3.24L200.44-3.24Q200.52-2.72 200.68-2.40Q200.84-2.08 201.16-1.90Q201.48-1.72 202.02-1.66Q202.56-1.60 203.40-1.60L203.40-1.60L203.40-0.04L195.80 0.40ZM194.56-9.92L194.56-11.48Q194.56-13 194.24-14.30Q193.92-15.60 193.28-16.60L193.28-16.60Q192.56-17.76 191.44-18.36Q190.32-18.96 189.04-18.96L189.04-18.96Q186.68-18.96 185.44-16.80Q184.20-14.64 184.20-10.52L184.20-10.52Q184.20-6.36 185.44-4.12Q186.68-1.88 189-1.88L189-1.88Q190.32-1.88 191.52-2.56Q192.72-3.24 193.48-4.40L193.48-4.40Q194.04-5.28 194.30-6.58Q194.56-7.88 194.56-9.92L194.56-9.92Z M225.56 0.40L225.56-2.56L225.40-2.56Q222.64 0.40 218.24 0.40L218.24 0.40Q215.96 0.40 214.06-0.40Q212.16-1.20 210.78-2.64Q209.40-4.08 208.64-6.06Q207.88-8.04 207.88-10.44L207.88-10.44Q207.88-12.84 208.66-14.88Q209.44-16.92 210.78-18.42Q212.12-19.92 213.98-20.76Q215.84-21.60 218-21.60L218-21.60Q220-21.60 221.54-21Q223.08-20.40 224.24-18.96L224.24-18.96L224.40-18.96L224.40-22.36Q224.40-24.72 224.34-26.42Q224.28-28.12 224.16-28.64L224.16-28.64Q223.96-29.48 222.94-29.86Q221.92-30.24 219.80-30.24L219.80-30.24L219.80-31.60L229.92-33.20L229.92-10.32Q229.92-7.32 229.98-5.70Q230.04-4.08 230.20-3.24L230.20-3.24Q230.28-2.72 230.44-2.40Q230.60-2.08 230.92-1.90Q231.24-1.72 231.78-1.66Q232.32-1.60 233.16-1.60L233.16-1.60L233.16-0.04L225.56 0.40ZM224.32-9.92L224.32-11.48Q224.32-13 224-14.30Q223.68-15.60 223.04-16.60L223.04-16.60Q222.32-17.76 221.20-18.36Q220.08-18.96 218.80-18.96L218.80-18.96Q216.44-18.96 215.20-16.80Q213.96-14.64 213.96-10.52L213.96-10.52Q213.96-6.36 215.20-4.12Q216.44-1.88 218.76-1.88L218.76-1.88Q220.08-1.88 221.28-2.56Q222.48-3.24 223.24-4.40L223.24-4.40Q223.80-5.28 224.06-6.58Q224.32-7.88 224.32-9.92L224.32-9.92Z M249.84-7.60L249.84-11.40Q246.48-9.88 244.78-8.58Q243.08-7.28 243.08-5.88L243.08-5.88Q243.08-4.72 243.72-4.04Q244.36-3.36 245.32-3.36L245.32-3.36Q246.28-3.36 247.12-3.70Q247.96-4.04 248.56-4.60Q249.16-5.16 249.50-5.94Q249.84-6.72 249.84-7.60L249.84-7.60ZM244.20-11.08L249.84-13.52L249.84-15.20Q249.84-17.52 249.02-18.58Q248.20-19.64 246.48-19.64L246.48-19.64Q245.32-19.64 244.72-19.02Q244.12-18.40 243.60-16.96L243.60-16.96Q243.24-15.96 242.58-15.40Q241.92-14.84 240.76-14.84L240.76-14.84Q239.64-14.84 239.04-15.52Q238.44-16.20 238.44-17.44L238.44-17.44Q238.44-19.36 240.54-20.48Q242.64-21.60 246.88-21.60L246.88-21.60Q251.36-21.60 253.28-19.98Q255.20-18.36 255.20-14.56L255.20-14.56L255.20-5.80Q255.20-2.40 256.56-2.40L256.56-2.40Q257.32-2.40 257.96-2.92L257.96-2.92L258.56-1.76Q258-0.76 256.82-0.18Q255.64 0.40 254.16 0.40L254.16 0.40Q252.32 0.40 251.36-0.72Q250.40-1.84 250.40-3.88L250.40-3.88L250.20-3.88Q249.04-1.80 247.20-0.72Q245.36 0.36 243.00 0.36L243.00 0.36Q240.48 0.36 238.96-1.06Q237.44-2.48 237.44-4.76L237.44-4.76Q237.44-6.52 239.00-8.06Q240.56-9.60 244.20-11.08L244.20-11.08Z"/></g>
</svg>
</g><g opacity="1" transform="rotate(0 205.2937 270.1571)">
<svg width="176.4218" height="173.5673" x="205.2937" y="270.1571" version="1.1" preserveAspectRatio="none" viewBox="24.247440338134766 31.785001754760742 149.7529754638672 147.33001708984375">
  <g transform="matrix(1 0 0 1 0 0)" ><g><path data-color="1" d="M82.73 60.983a.769.769 0 1 0 1.538 0V35.072a.769.769 0 1 0-1.538 0v13.721a.184.184 0 0 1-.035.066c.014-.002.022-.005.035-.008v12.132z" class="icon1"></path><path data-color="1" d="M173.257 98.731c-.439-.055-.78.318-.794.742-1.1 33.182-24.302 61.452-56.525 69l-1.781-6.391c29.602-6.699 51.779-33.198 51.778-64.797a.769.769 0 1 0-1.538 0c0 35.318-28.358 64.119-63.5 64.875v-6.988c15.808-.342 30.358-6.973 40.989-18.7 1.126-1.241.765-3.538.383-5.971-.278-1.778-.594-3.792-.069-4.555.443-.647 2.048-.591 3.462-.545 1.99.069 4.043.136 4.836-1.423 4.184-8.238 6.307-17.506 6.139-26.805l-.013-.756h-19.068c-1.357-12.734-9.3-24.098-21.039-29.617-4.934-2.319-10.221-3.495-15.715-3.495-18.981 0-34.659 14.373-36.742 32.806l-21.385.471.014.765c.175 9.68 2.805 19.328 7.607 27.901.875 1.562 2.831 1.478 4.561 1.406 1.334-.054 2.71-.113 3.219.57.478.642.314 2.639.182 4.244-.189 2.301-.367 4.475.65 5.563 10.731 11.475 25.408 18.035 40.452 18.146v7.015c-35.733-.069-64.784-29.157-64.784-64.908a.769.769 0 1 0-1.538 0c0 32.214 23.047 59.14 53.516 65.176a.752.752 0 0 0-.174.308l-1.642 6.215C68 165.652 52.87 156.491 42.072 143.134a73.33 73.33 0 0 1-16.247-48.525.768.768 0 0 0-.742-.794c-.455-.038-.78.318-.794.742A74.874 74.874 0 0 0 40.876 144.1c11.177 13.829 26.903 23.251 44.28 26.531l.703.133 2.007-7.602a.744.744 0 0 0-.04-.472 66.446 66.446 0 0 0 11.534 1.042v14.614a.769.769 0 1 0 1.538 0V163.7a66.358 66.358 0 0 0 11.758-1.28l2.195 7.876.711-.159c33.276-7.449 57.306-36.487 58.438-70.611a.77.77 0 0 0-.743-.795zm-35.556-.776h17.409c.039 8.793-2.023 17.534-5.98 25.325-.349.686-1.976.633-3.413.584-1.899-.064-3.861-.131-4.782 1.21-.871 1.268-.536 3.403-.181 5.664.28 1.783.628 4.003-.003 4.7-10.337 11.401-24.484 17.853-39.852 18.193V137.27c20.348-.052 36.889-16.62 36.889-36.981a37.713 37.713 0 0 0-.087-2.334zM99.36 153.63c-14.638-.097-28.889-6.484-39.33-17.65-.552-.59-.379-2.696-.24-4.387.177-2.15.343-4.18-.481-5.288-.994-1.336-2.867-1.256-4.517-1.187-1.656.074-2.769.065-3.154-.62-4.552-8.127-7.101-17.243-7.393-26.413l19.676-.431a37.05 37.05 0 0 0-.104 2.635c0 19.91 15.815 36.186 35.542 36.948v16.393h.001zm1.442-17.896c-19.546 0-35.447-15.9-35.447-35.446s15.901-35.446 35.447-35.446a35.171 35.171 0 0 1 15.061 3.348c12.384 5.821 20.385 18.421 20.385 32.097 0 19.548-15.901 35.447-35.446 35.447z" class="icon1"></path><path data-color="1" d="M115.395 61.752a.77.77 0 0 0 .769-.769V35.072a.769.769 0 1 0-1.538 0v25.912a.77.77 0 0 0 .769.768z" class="icon1"></path><path data-color="1" d="M126.281 68.956a.77.77 0 0 0 .769-.768V39.441a.769.769 0 1 0-1.538 0v28.746a.77.77 0 0 0 .769.769z" class="icon1"></path><path data-color="1" d="M136.757 80.043h.012a.769.769 0 0 0 .769-.757l.494-32.522a.77.77 0 0 0-.757-.781h-.012a.769.769 0 0 0-.769.757L136 79.262a.77.77 0 0 0 .757.781z" class="icon1"></path><path data-color="1" d="M146.24 93.273h.01a.77.77 0 0 0 .769-.758l.494-37.248a.769.769 0 0 0-.758-.78c-.372-.015-.773.335-.779.758l-.494 37.248a.77.77 0 0 0 .758.78z" class="icon1"></path><path data-color="1" d="M164.897 94.216a.768.768 0 0 0 .791-.746l.494-16.457a.77.77 0 0 0-.746-.791l-.023-.001a.768.768 0 0 0-.768.747l-.494 16.457a.77.77 0 0 0 .746.791z" class="icon1"></path><path data-color="1" d="M100.129 58.29a.77.77 0 0 0 .769-.77V32.554a.769.769 0 1 0-1.538 0v24.967c0 .425.344.769.769.769z" class="icon1"></path><path data-color="1" d="M111.568 76.236a26.688 26.688 0 0 0-11.439-2.544c-14.844 0-26.921 12.076-26.921 26.921s12.077 26.921 26.921 26.921 26.921-12.076 26.921-26.922c0-10.388-6.077-19.956-15.482-24.376zm-11.439 49.759c-13.996 0-25.382-11.387-25.382-25.382S86.133 75.23 100.129 75.23c3.772 0 7.4.807 10.785 2.398 8.867 4.169 14.597 13.19 14.597 22.984 0 13.997-11.386 25.383-25.382 25.383z" class="icon1"></path><path data-color="1" d="M116.89 83.06a.769.769 0 0 0-.769.769c0 8.844-7.196 16.04-16.042 16.04a15.88 15.88 0 0 1-6.816-1.517c-5.605-2.634-9.225-8.336-9.225-14.525a.769.769 0 1 0-1.538 0c0 6.782 3.969 13.029 10.109 15.916a17.414 17.414 0 0 0 7.469 1.663c9.692 0 17.579-7.886 17.579-17.578a.765.765 0 0 0-.767-.768z" class="icon1"></path><path data-color="1" d="M155.473 93.273h.015c.418 0 .76-.335.768-.754l.494-25.907a.77.77 0 0 0-.754-.784c-.395-.03-.775.329-.783.754l-.494 25.907a.77.77 0 0 0 .754.784z" class="icon1"></path><path data-color="1" d="M72.613 68.956a.77.77 0 0 0 .769-.768V39.441a.769.769 0 1 0-1.538 0v28.746c0 .425.344.769.769.769z" class="icon1"></path><path data-color="1" d="M62.124 80.043h.011a.77.77 0 0 0 .757-.781l-.494-32.522c-.005-.423-.334-.751-.78-.757a.77.77 0 0 0-.757.781l.494 32.522a.77.77 0 0 0 .769.757z" class="icon1"></path><path data-color="1" d="M52.644 93.273h.01a.77.77 0 0 0 .758-.78l-.494-37.248c-.005-.423-.373-.755-.779-.758a.77.77 0 0 0-.758.78l.494 37.247a.77.77 0 0 0 .769.759z" class="icon1"></path><path data-color="1" d="M33.973 93.273l.024-.001a.768.768 0 0 0 .746-.791l-.494-16.457c-.013-.426-.357-.777-.792-.746a.768.768 0 0 0-.746.791l.494 16.457a.77.77 0 0 0 .768.747z" class="icon1"></path><path data-color="1" d="M43.405 93.273l.015.001a.77.77 0 0 0 .754-.784l-.494-25.907c-.008-.425-.4-.783-.783-.754a.77.77 0 0 0-.754.784l.494 25.906a.77.77 0 0 0 .768.754z" class="icon1"></path></g></g>
</svg>
</g></svg></svg>