<svg version="1.1" preserveAspectRatio="none" xmlns="http://www.w3.org/2000/svg" width="500" height="500" viewBox="0 0 500 500"><rect width="100%" height="100%" fill="#F5F5F5" fill-opacity="1"/><svg viewBox="89.6342 158 357.1723 150" width="333" height="139.84847089205965" x="83.5px" y="180.0758px" xmlns="http://www.w3.org/2000/svg" xmlns:xlink="http://www.w3.org/1999/xlink" preserveAspectRatio="none"><defs></defs><style>.companyName {fill:#08376B;fill-opacity:1;}.icon1 {fill:#35C0ED;fill-opacity:1;}.icon2 {fill:#9AEBA6;fill-opacity:1;}.icon3 {fill:#2F90B0;fill-opacity:1;}.icon3-str {stroke:#2F90B0;stroke-opacity:1;}.shapeStroke-str {stroke:#08376B;stroke-opacity:1;}</style><g opacity="1" transform="rotate(0 89.6342 173)">
<svg width="116.1441" height="120" x="89.6342" y="173" version="1.1" preserveAspectRatio="none" viewBox="11.833999633789062 10.249029159545898 77.83399963378906 80.41796875">
  <g transform="matrix(1 0 0 1 0 0)" class="icon1"><g><path d="M88.667,73.334h-18V43c0-1.501-1.176-2.814-3.476-3.913l3.452-15.537c0.001-0.003,0-0.006,0-0.009   c0.009-0.039,0-0.08,0.003-0.119c0.009-0.092,0.018-0.183,0.001-0.271c-0.001-0.005,0.001-0.01,0-0.015l-1.167-5.833   c-0.076-0.383-0.37-0.687-0.751-0.777c-0.382-0.09-0.779,0.051-1.019,0.359l-3.5,4.5c-0.004,0.004-0.004,0.01-0.008,0.015   c-0.037,0.05-0.055,0.11-0.082,0.166c-0.032,0.065-0.072,0.127-0.089,0.197c-0.002,0.007-0.007,0.012-0.009,0.019l-2.926,13.137   l-2.605-21.208c-0.066-0.542-0.561-0.926-1.097-0.873l-9.5,1C47.63,13.867,47.387,14,47.22,14.207   c-0.167,0.208-0.244,0.474-0.214,0.739l2.397,21.231c-0.882,0.001-1.761,0.019-2.639,0.052l-2.45-21.468   c-0.032-0.281-0.182-0.535-0.411-0.7c-0.23-0.165-0.519-0.225-0.795-0.164c-0.187,0.041-0.356,0.076-0.535,0.114l-0.287-2.862   c-0.028-0.284-0.177-0.542-0.407-0.709c-0.231-0.167-0.521-0.229-0.8-0.168c-1.72,0.374-2.885,0.525-2.896,0.527   c-0.538,0.069-0.923,0.555-0.868,1.094l0.319,3.1c-0.073,0.013-0.114,0.02-0.117,0.021c-0.522,0.09-0.884,0.573-0.823,1.1   l1.22,10.563c0,0.001,0,0.002,0,0.003l1.192,10.318c-0.758,0.129-1.485,0.272-2.182,0.43L33.86,19.671   c-0.352-2.039-2.297-3.412-4.333-3.058c-0.987,0.17-1.849,0.715-2.426,1.534c-0.578,0.818-0.802,1.813-0.631,2.799l3.343,19.368   c-0.98,0.813-1.479,1.715-1.479,2.686v30.334h-15.5c-0.552,0-1,0.447-1,1s0.448,1,1,1h15.5v3.131h-8.5c-0.552,0-1,0.447-1,1   s0.448,1,1,1h8.693c1.459,3.834,11.268,5.834,20.974,5.834s19.515-2,20.974-5.834h8.693c0.553,0,1-0.447,1-1s-0.447-1-1-1h-8.5   v-3.131h18c0.553,0,1-0.447,1-1S89.22,73.334,88.667,73.334z M36.445,46.398c-1.53-0.391-2.798-0.833-3.775-1.292l-1.453-8.414   c0.808-0.017,1.934-0.192,3.428-0.718L36.445,46.398z M49.5,49.833c0.778,0,1.557-0.015,2.331-0.04c0.001,0,0.002,0,0.003,0   c0.009,0,0.018-0.001,0.027-0.001c6.95-0.232,13.598-1.491,16.806-3.715V51c0,1.971-7.467,4.834-19.167,4.834   S30.333,52.971,30.333,51v-4.922C33.903,48.553,41.734,49.833,49.5,49.833z M40.055,27.77c0.139,0.007,0.284,0.012,0.439,0.012   c0.854,0,1.965-0.139,3.229-0.564l2.342,20.524c-1.316-0.066-2.563-0.168-3.739-0.302L40.055,27.77z M49.5,57.834   c7.766,0,15.598-1.281,19.167-3.757V58c0,1.971-7.467,4.834-19.167,4.834S30.333,59.971,30.333,58v-3.923   C33.903,56.553,41.734,57.834,49.5,57.834z M49.5,64.834c7.766,0,15.598-1.281,19.167-3.757V65c0,1.971-7.467,4.834-19.167,4.834   S30.333,66.971,30.333,65v-3.923C33.903,63.553,41.734,64.834,49.5,64.834z M30.333,68.077c3.57,2.476,11.401,3.757,19.167,3.757   s15.598-1.281,19.167-3.757V72c0,1.971-7.467,4.834-19.167,4.834S30.333,73.971,30.333,72V68.077z M68.667,43   c0,0.723-1.014,1.566-2.865,2.344l0.942-4.244C68.13,41.84,68.667,42.541,68.667,43z M63.579,46.122   c-0.919,0.27-1.953,0.52-3.091,0.742l5.257-23.61l2.741,0.783L63.579,46.122z M67.948,19.838l0.417,2.083l-1.667-0.477   L67.948,19.838z M56.627,14.931L59.8,40.749l-1.441,6.473c-1.703,0.25-3.587,0.433-5.635,0.53l-0.146-1.297l2.704-0.286   c0.549-0.058,0.947-0.55,0.889-1.1c-0.058-0.549-0.539-0.936-1.1-0.89l-2.717,0.287l-0.204-1.8l5.219-0.519   c0.55-0.055,0.951-0.544,0.896-1.094c-0.055-0.55-0.547-0.951-1.094-0.896l-5.245,0.521l-0.193-1.709l2.294-0.243   c0.549-0.058,0.947-0.55,0.889-1.1c-0.058-0.549-0.545-0.942-1.1-0.89l-2.308,0.244l-0.17-1.504l5.191-0.516   c0.55-0.055,0.951-0.544,0.896-1.094c-0.055-0.55-0.551-0.948-1.094-0.896l-5.219,0.519l-0.174-1.544l2.382-0.251   c0.549-0.058,0.947-0.55,0.889-1.1c-0.058-0.549-0.545-0.937-1.1-0.89l-2.396,0.253l-0.138-1.221l4.704-0.493   c0.549-0.058,0.947-0.55,0.89-1.099c-0.058-0.548-0.526-0.948-1.099-0.89l-4.719,0.495l-0.148-1.316l2.214-0.234   c0.549-0.058,0.947-0.55,0.889-1.1c-0.058-0.549-0.541-0.938-1.1-0.89l-2.228,0.235l-0.191-1.688l4.717-0.469   c0.55-0.055,0.951-0.544,0.896-1.094s-0.548-0.951-1.094-0.896l-4.744,0.471l-0.132-1.171l2.57-0.271   c0.549-0.058,0.947-0.55,0.889-1.1c-0.058-0.549-0.545-0.942-1.1-0.89l-2.584,0.273l-0.1-0.886L56.627,14.931z M49.63,38.176   l1.088,9.639c-0.405,0.007-0.803,0.019-1.218,0.019c-0.482,0-0.945-0.012-1.413-0.021l-1.095-9.59   C47.87,38.19,48.749,38.175,49.63,38.176z M43.49,25.174c-1.661,0.644-2.958,0.655-3.669,0.574l-1.032-8.932   c0.798-0.149,2.07-0.396,3.663-0.732L43.49,25.174z M39.403,12.635c0.282-0.048,0.62-0.108,1.005-0.183l0.197,1.97   c-0.362,0.073-0.692,0.139-0.998,0.199L39.403,12.635z M39.338,38.988l0.945,8.181c-0.599-0.092-1.177-0.191-1.727-0.298   l-1.29-7.47C37.926,39.25,38.616,39.113,39.338,38.988z M28.735,19.3c0.27-0.382,0.671-0.636,1.132-0.716   c0.954-0.16,1.858,0.476,2.022,1.427l2.409,13.955c-1.766,0.661-2.867,0.749-3.429,0.717l-2.43-14.076   C28.361,20.146,28.466,19.682,28.735,19.3z M49.5,84.299c-11.7,0-19.167-2.863-19.167-4.834v-4.388   c3.57,2.476,11.401,3.757,19.167,3.757s15.598-1.281,19.167-3.757v4.388C68.667,81.436,61.2,84.299,49.5,84.299z"></path><path d="M58.416,88.667H30.25c-0.552,0-1,0.447-1,1s0.448,1,1,1h28.167c0.553,0,1-0.447,1-1S58.969,88.667,58.416,88.667z"></path><path d="M68.75,88.667h-5.5c-0.553,0-1,0.447-1,1s0.447,1,1,1h5.5c0.553,0,1-0.447,1-1S69.303,88.667,68.75,88.667z"></path><path d="M32.075,32.378c0.056,0,0.114-0.005,0.171-0.015c0.544-0.094,0.91-0.611,0.815-1.155l-1.457-8.438   c-0.094-0.544-0.612-0.91-1.155-0.815c-0.544,0.094-0.91,0.611-0.815,1.155l1.457,8.438C31.175,32.035,31.597,32.378,32.075,32.378   z"></path></g></g>
</svg>
</g><g opacity="1" transform="rotate(0 268.7783 173)">
<svg width="178.0282" height="120" x="268.7783" y="173" version="1.1" preserveAspectRatio="none" viewBox="1.48 -28.48 105.27999999999999 70.96000000000001">
  <g transform="matrix(1 0 0 1 0 0)" class="companyName"><path id="id-D6z1nYkh9" d="M4.20-7.08L1.48-7.08Q1.56-5.36 2.38-3.96Q3.20-2.56 4.62-1.58Q6.04-0.60 7.96-0.06Q9.88 0.48 12.16 0.48L12.16 0.48Q14.48 0.48 16.34-0.08Q18.20-0.64 19.52-1.68Q20.84-2.72 21.56-4.20Q22.28-5.68 22.28-7.48L22.28-7.48Q22.28-9.96 21.04-11.54Q19.80-13.12 17.94-14.18Q16.08-15.24 13.90-15.96Q11.72-16.68 9.86-17.48Q8-18.28 6.76-19.32Q5.52-20.36 5.52-22.08L5.52-22.08Q5.52-23.04 5.94-23.88Q6.36-24.72 7.18-25.34Q8-25.96 9.20-26.34Q10.40-26.72 11.96-26.72L11.96-26.72Q14.56-26.72 16.38-25.62Q18.20-24.52 18.52-22.16L18.52-22.16L21.24-22.16Q21-23.64 20.16-24.82Q19.32-26 18.04-26.82Q16.76-27.64 15.14-28.06Q13.52-28.48 11.76-28.48L11.76-28.48Q9.92-28.48 8.26-28Q6.60-27.52 5.34-26.60Q4.08-25.68 3.34-24.28Q2.60-22.88 2.60-21.08L2.60-21.08Q2.60-18.72 3.80-17.28Q5-15.84 6.82-14.88Q8.64-13.92 10.76-13.24Q12.88-12.56 14.70-11.70Q16.52-10.84 17.72-9.60Q18.92-8.36 18.92-6.28L18.92-6.28Q18.92-3.68 17.02-2.48Q15.12-1.28 11.96-1.28L11.96-1.28Q9.44-1.28 7.92-1.94Q6.40-2.60 5.60-3.52Q4.80-4.44 4.52-5.42Q4.24-6.40 4.20-7.08L4.20-7.08Z M29.68-18.40L26.20-18.40L26.20-20L29.68-20L29.68-26.16L33.08-26.16L33.08-20L37.92-20L37.92-18.40L33.08-18.40L33.08-5.12Q33.08-4.64 33.12-4.02Q33.16-3.40 33.36-2.86Q33.56-2.32 33.98-1.96Q34.40-1.60 35.16-1.60L35.16-1.60Q36.12-1.60 36.76-2.32Q37.40-3.04 37.80-3.88L37.80-3.88L39.68-1.96Q37.72 0 35.24 0L35.24 0Q34.20 0 33.20-0.36Q32.20-0.72 31.42-1.46Q30.64-2.20 30.16-3.36Q29.68-4.52 29.68-6.08L29.68-6.08L29.68-18.40Z M46.60-20L43.20-20L43.20-7Q43.20-6.28 43.34-5.02Q43.48-3.76 44.16-2.54Q44.84-1.32 46.30-0.42Q47.76 0.48 50.40 0.48L50.40 0.48Q51.56 0.52 52.94 0.02Q54.32-0.48 55.72-1.88L55.72-1.88L56.36-2.52L56.52-2.52L56.52 0L59.92 0L59.92-20L56.52-20L56.52-7.60Q56.52-6.04 56.08-4.92Q55.64-3.80 54.92-3.06Q54.20-2.32 53.24-1.96Q52.28-1.60 51.24-1.60L51.24-1.60Q49.56-1.60 48.62-2.26Q47.68-2.92 47.22-3.80Q46.76-4.68 46.68-5.54Q46.60-6.40 46.60-6.80L46.60-6.80L46.60-20Z M84.20 0L84.20-28L80.80-28L80.80-16.72L80.64-16.72Q80.24-17.76 79.58-18.46Q78.92-19.16 78.08-19.60Q77.24-20.04 76.30-20.24Q75.36-20.44 74.40-20.44L74.40-20.44Q72.40-20.44 70.72-19.70Q69.04-18.96 67.82-17.60Q66.60-16.24 65.92-14.32Q65.24-12.40 65.24-10.04L65.24-10.04Q65.24-7.64 65.92-5.70Q66.60-3.76 67.82-2.38Q69.04-1 70.72-0.26Q72.40 0.48 74.40 0.48L74.40 0.48Q79.12 0.48 80.64-3.24L80.64-3.24L80.80-3.24L80.80 0L84.20 0ZM80.80-11.48L80.80-8Q80.80-6.68 80.36-5.50Q79.92-4.32 79.18-3.46Q78.44-2.60 77.42-2.10Q76.40-1.60 75.24-1.60L75.24-1.60Q73.96-1.60 72.84-2.06Q71.72-2.52 70.88-3.52Q70.04-4.52 69.54-6.12Q69.04-7.72 69.04-9.96L69.04-9.96Q69.04-12.24 69.54-13.84Q70.04-15.44 70.90-16.46Q71.76-17.48 72.88-17.94Q74-18.40 75.24-18.40L75.24-18.40Q76.36-18.40 77.36-17.94Q78.36-17.48 79.12-16.58Q79.88-15.68 80.34-14.40Q80.80-13.12 80.80-11.48L80.80-11.48Z M98.52-4.68L98.36-4.68L91.44-20L87.80-20L96.76-0.24L94.64 4.96Q94.28 5.88 93.70 6.44Q93.12 7 92.36 7L92.36 7Q91.64 7 90.98 6.58Q90.32 6.16 89.96 5.36L89.96 5.36L88.20 8.68Q88.96 9.36 89.88 9.68Q90.80 10 91.60 10L91.60 10Q92.72 10 93.56 9.44Q94.40 8.88 95.04 7.98Q95.68 7.08 96.16 5.98Q96.64 4.88 97.08 3.80L97.08 3.80L106.76-20L104.80-20L98.52-4.68Z M6.84 33.76L20.64 33.76L24.48 42L28.36 42L15.32 14L13.32 14L1.48 42L3.32 42L6.84 33.76ZM13.52 18.48L19.80 31.96L7.60 31.96L13.36 18.48L13.52 18.48Z M50.52 42L50.52 14L47.12 14L47.12 25.28L46.96 25.28Q46.56 24.24 45.90 23.54Q45.24 22.84 44.40 22.40Q43.56 21.96 42.62 21.76Q41.68 21.56 40.72 21.56L40.72 21.56Q38.72 21.56 37.04 22.30Q35.36 23.04 34.14 24.40Q32.92 25.76 32.24 27.68Q31.56 29.60 31.56 31.96L31.56 31.96Q31.56 34.36 32.24 36.30Q32.92 38.24 34.14 39.62Q35.36 41 37.04 41.74Q38.72 42.48 40.72 42.48L40.72 42.48Q45.44 42.48 46.96 38.76L46.96 38.76L47.12 38.76L47.12 42L50.52 42ZM47.12 30.52L47.12 34Q47.12 35.32 46.68 36.50Q46.24 37.68 45.50 38.54Q44.76 39.40 43.74 39.90Q42.72 40.40 41.56 40.40L41.56 40.40Q40.28 40.40 39.16 39.94Q38.04 39.48 37.20 38.48Q36.36 37.48 35.86 35.88Q35.36 34.28 35.36 32.04L35.36 32.04Q35.36 29.76 35.86 28.16Q36.36 26.56 37.22 25.54Q38.08 24.52 39.20 24.06Q40.32 23.60 41.56 23.60L41.56 23.60Q42.68 23.60 43.68 24.06Q44.68 24.52 45.44 25.42Q46.20 26.32 46.66 27.60Q47.12 28.88 47.12 30.52L47.12 30.52Z M74.68 42L74.68 14L71.28 14L71.28 25.28L71.12 25.28Q70.72 24.24 70.06 23.54Q69.40 22.84 68.56 22.40Q67.72 21.96 66.78 21.76Q65.84 21.56 64.88 21.56L64.88 21.56Q62.88 21.56 61.20 22.30Q59.52 23.04 58.30 24.40Q57.08 25.76 56.40 27.68Q55.72 29.60 55.72 31.96L55.72 31.96Q55.72 34.36 56.40 36.30Q57.08 38.24 58.30 39.62Q59.52 41 61.20 41.74Q62.88 42.48 64.88 42.48L64.88 42.48Q69.60 42.48 71.12 38.76L71.12 38.76L71.28 38.76L71.28 42L74.68 42ZM71.28 30.52L71.28 34Q71.28 35.32 70.84 36.50Q70.40 37.68 69.66 38.54Q68.92 39.40 67.90 39.90Q66.88 40.40 65.72 40.40L65.72 40.40Q64.44 40.40 63.32 39.94Q62.20 39.48 61.36 38.48Q60.52 37.48 60.02 35.88Q59.52 34.28 59.52 32.04L59.52 32.04Q59.52 29.76 60.02 28.16Q60.52 26.56 61.38 25.54Q62.24 24.52 63.36 24.06Q64.48 23.60 65.72 23.60L65.72 23.60Q66.84 23.60 67.84 24.06Q68.84 24.52 69.60 25.42Q70.36 26.32 70.82 27.60Q71.28 28.88 71.28 30.52L71.28 30.52Z M88.44 21.56L88.44 21.56Q91.36 21.56 92.96 22.38Q94.56 23.20 95.30 24.52Q96.04 25.84 96.16 27.56Q96.28 29.28 96.28 31.08L96.28 31.08L96.28 42L93.04 42L93.04 40.04Q91.88 41.16 90.08 41.82Q88.28 42.48 86.48 42.48L86.48 42.48Q84.76 42.48 83.44 41.88Q82.12 41.28 81.24 40.32Q80.36 39.36 79.92 38.16Q79.48 36.96 79.48 35.72L79.48 35.72Q79.48 34.44 79.96 33.16Q80.44 31.88 81.40 30.86Q82.36 29.84 83.76 29.20Q85.16 28.56 86.96 28.56L86.96 28.56Q88.76 28.56 90.38 29.26Q92 29.96 93.04 31.24L93.04 31.24L93.04 29.52Q93.04 26.24 92.06 24.64Q91.08 23.04 88.48 23.04L88.48 23.04Q87.36 23.04 86.52 23.32Q85.68 23.60 85.02 24.10Q84.36 24.60 83.80 25.34Q83.24 26.08 82.68 27L82.68 27L80.60 24.92Q81.16 24.32 81.78 23.72Q82.40 23.12 83.30 22.64Q84.20 22.16 85.44 21.86Q86.68 21.56 88.44 21.56ZM93.04 37.16L93.04 34.08Q92.84 33.60 92.46 32.96Q92.08 32.32 91.48 31.72Q90.88 31.12 90.04 30.70Q89.20 30.28 88.04 30.28L88.04 30.28Q86.88 30.28 85.92 30.74Q84.96 31.20 84.30 31.94Q83.64 32.68 83.28 33.68Q82.92 34.68 82.92 35.76L82.92 35.76Q82.92 37.04 83.38 37.98Q83.84 38.92 84.56 39.58Q85.28 40.24 86.16 40.56Q87.04 40.88 87.84 40.88L87.84 40.88Q88.60 40.88 89.38 40.60Q90.16 40.32 90.86 39.82Q91.56 39.32 92.12 38.64Q92.68 37.96 93.04 37.16L93.04 37.16Z"/></g>
</svg>
</g><g opacity="1" transform="rotate(0 235.7783 158)">
<svg width="3" height="150" x="235.7783" y="158" version="1.1" preserveAspectRatio="none" viewBox="0 0 3 150">
  <defs><rect x="0" y="0" width="3" height="150" rx="0px" ry="0px" id="id-tBXipXk0b1677955740384"></rect></defs><use class="companyName shapeStroke-str" style="stroke-width:0;" xlink:href="#id-tBXipXk0b1677955740384"></use>
</svg>
</g></svg></svg>