<svg version="1.1" preserveAspectRatio="none" xmlns="http://www.w3.org/2000/svg" width="500" height="500" viewBox="0 0 500 500"><rect width="100%" height="100%" fill="#F5F5F5" fill-opacity="1"/><svg viewBox="90.1153 74.4696 379.3427 348.4246" width="333" height="305.8590340607583" x="83.5px" y="97.0705px" xmlns="http://www.w3.org/2000/svg" xmlns:xlink="http://www.w3.org/1999/xlink" preserveAspectRatio="none"><defs></defs><style>.companyName {fill:#F7BFB2;fill-opacity:1;}.icon1 {fill:#FDC8BC;fill-opacity:1;}.icon2 {fill:#D2BB7A;fill-opacity:1;}.icon3 {fill:#8F8F8F;fill-opacity:1;}.icon3-str {stroke:#8F8F8F;stroke-opacity:1;}</style><g opacity="1" transform="rotate(0 90.1153 352.8941)">
<svg width="379.3427" height="70.0001" x="90.1153" y="352.8941" version="1.1" preserveAspectRatio="none" viewBox="1.68 -31.2 213.07999999999998 39.31999999999999">
  <g transform="matrix(1 0 0 1 0 0)" class="companyName"><path id="id-D6z1nYkh10" d="M19.28-23.20Q15.52-25.16 12.60-25.16L12.60-25.16Q10.44-25.16 9.18-24.20Q7.92-23.24 7.92-21.56L7.92-21.56Q7.92-19.92 9.50-18.82Q11.08-17.72 13.92-16.64L13.92-16.64Q16.08-15.88 17.62-14.90Q19.16-13.92 20.16-12.24Q21.16-10.56 21.16-8L21.16-8Q21.16-5.68 20-3.80Q18.84-1.92 16.64-0.80Q14.44 0.32 11.44 0.32L11.44 0.32Q8.80 0.32 6.24-0.50Q3.68-1.32 1.68-2.76L1.68-2.76L3.76-6.40Q5.24-5.28 7.26-4.54Q9.28-3.80 11-3.80L11-3.80Q13.12-3.80 14.72-4.82Q16.32-5.84 16.32-7.96L16.32-7.96Q16.32-9.64 14.98-10.76Q13.64-11.88 11.24-12.80L11.24-12.80Q8.76-13.72 7.12-14.62Q5.48-15.52 4.30-17.14Q3.12-18.76 3.12-21.20L3.12-21.20Q3.12-24.76 5.54-26.94Q7.96-29.12 11.92-29.28L11.92-29.28Q14.80-29.28 16.98-28.62Q19.16-27.96 21.04-26.76L21.04-26.76L19.28-23.20Z M28-24.36L32.48-24.36L32.48-16.92L36.88-16.92L36.88-13.40L32.48-13.40L32.48 0L28 0L28-13.40L25.08-13.40L25.08-16.92L28-16.92L28-24.36Z M53.08-16.92L57.56-16.92L57.56 0L53.52 0L53.24-3.04Q52.36-1.32 50.64-0.30Q48.92 0.72 46.72 0.72L46.72 0.72Q44.40 0.72 42.86-0.70Q41.32-2.12 41.28-4.36L41.28-4.36L41.28-16.92L45.76-16.92L45.76-5.96Q45.88-3.16 48.52-3.12L48.52-3.12Q50.48-3.12 51.78-4.92Q53.08-6.72 53.08-9.44L53.08-9.44L53.08-16.92Z M77.36-31.20L81.80-31.20L81.80 0L77.32 0L77.32-2.28Q74.52 0.44 70.68 0.44L70.68 0.44Q68.32 0.44 66.42-0.68Q64.52-1.80 63.44-3.88Q62.36-5.96 62.36-8.72L62.36-8.72Q62.36-11.48 63.50-13.52Q64.64-15.56 66.66-16.62Q68.68-17.68 71.24-17.68L71.24-17.68Q73.08-17.68 74.72-16.98Q76.36-16.28 77.36-15.08L77.36-15.08L77.36-31.20ZM72.12-3.36Q74.04-3.36 75.40-4.32Q76.76-5.28 77.32-7L77.32-7L77.32-10.60Q76.84-12.16 75.42-13.16Q74-14.16 72.12-14.16L72.12-14.16Q70.72-14.16 69.52-13.46Q68.32-12.76 67.60-11.54Q66.88-10.32 66.88-8.80L66.88-8.80Q66.88-7.28 67.60-6.04Q68.32-4.80 69.52-4.08Q70.72-3.36 72.12-3.36L72.12-3.36Z M100.60-16.92L104.68-16.92L93.76 8.12L89.36 8.12L93.32-0.72L85.48-16.92L90.52-16.92L95.56-5.72L100.60-16.92Z M139.72 0L137.04-6.84L126.44-6.84L123.64 0L119.04 0L131.92-30.32L132.20-30.32L145.08 0L139.72 0ZM128.08-10.84L135.48-10.84L131.84-20.04L128.08-10.84Z M162.24-31.20L166.68-31.20L166.68 0L162.20 0L162.20-2.28Q159.40 0.44 155.56 0.44L155.56 0.44Q153.20 0.44 151.30-0.68Q149.40-1.80 148.32-3.88Q147.24-5.96 147.24-8.72L147.24-8.72Q147.24-11.48 148.38-13.52Q149.52-15.56 151.54-16.62Q153.56-17.68 156.12-17.68L156.12-17.68Q157.96-17.68 159.60-16.98Q161.24-16.28 162.24-15.08L162.24-15.08L162.24-31.20ZM157.00-3.36Q158.92-3.36 160.28-4.32Q161.64-5.28 162.20-7L162.20-7L162.20-10.60Q161.72-12.16 160.30-13.16Q158.88-14.16 157.00-14.16L157.00-14.16Q155.60-14.16 154.40-13.46Q153.20-12.76 152.48-11.54Q151.76-10.32 151.76-8.80L151.76-8.80Q151.76-7.28 152.48-6.04Q153.20-4.80 154.40-4.08Q155.60-3.36 157.00-3.36L157.00-3.36Z M186.44-31.20L190.88-31.20L190.88 0L186.40 0L186.40-2.28Q183.60 0.44 179.76 0.44L179.76 0.44Q177.40 0.44 175.50-0.68Q173.60-1.80 172.52-3.88Q171.44-5.96 171.44-8.72L171.44-8.72Q171.44-11.48 172.58-13.52Q173.72-15.56 175.74-16.62Q177.76-17.68 180.32-17.68L180.32-17.68Q182.16-17.68 183.80-16.98Q185.44-16.28 186.44-15.08L186.44-15.08L186.44-31.20ZM181.20-3.36Q183.12-3.36 184.48-4.32Q185.84-5.28 186.40-7L186.40-7L186.40-10.60Q185.92-12.16 184.50-13.16Q183.08-14.16 181.20-14.16L181.20-14.16Q179.80-14.16 178.60-13.46Q177.40-12.76 176.68-11.54Q175.96-10.32 175.96-8.80L175.96-8.80Q175.96-7.28 176.68-6.04Q177.40-4.80 178.60-4.08Q179.80-3.36 181.20-3.36L181.20-3.36Z M210.64-16.92L214.76-16.92L214.76 0L210.28 0L210.28-2.44Q209.36-1.36 207.80-0.46Q206.24 0.44 204.16 0.44L204.16 0.44Q201.72 0.44 199.80-0.58Q197.88-1.60 196.76-3.60Q195.64-5.60 195.64-8.44L195.64-8.44Q195.64-11.20 196.80-13.30Q197.96-15.40 199.90-16.54Q201.84-17.68 204.16-17.68L204.16-17.68Q208.28-17.68 210.32-14.64L210.32-14.64L210.64-16.92ZM205.40-3.24Q207.24-3.24 208.50-4.18Q209.76-5.12 210.28-6.84L210.28-6.84L210.28-10.52Q209.80-12.08 208.42-13.04Q207.04-14 205.24-14L205.24-14Q203.12-14 201.64-12.50Q200.16-11 200.16-8.68L200.16-8.68Q200.16-7.16 200.88-5.92Q201.60-4.68 202.80-3.96Q204-3.24 205.40-3.24L205.40-3.24Z"/></g>
</svg>
</g><g opacity="1" transform="rotate(0 184.951 74.4696)">
<svg width="189.6714" height="248.4245" x="184.951" y="74.4696" version="1.1" preserveAspectRatio="none" viewBox="7.111000061035156 1.0049999952316284 36.283668518066406 47.52300262451172">
  <g transform="matrix(1 0 0 1 0 0)" class="icon1"><path d="M42.314,1.005H30.531c-0.593,0-1.072,0.479-1.072,1.071v44.203c-1.431,0.122-2.863,0.138-4.285,0.041V22.153  c0-0.205-0.071-0.382-0.169-0.544l0.013-0.007L17.068,8.653c-0.194-0.319-0.539-0.511-0.912-0.511c-0.375,0-0.718,0.192-0.915,0.511  L7.278,21.602l0.004,0.002c-0.098,0.161-0.171,0.342-0.171,0.549V40.45c0,0.34,0.164,0.646,0.418,0.846  c1.348,1.17,2.812,2.216,4.34,3.102c3.655,2.155,7.851,3.529,12.136,3.977c1,0.104,2.008,0.153,3.018,0.153  c1.214,0,2.431-0.072,3.639-0.217c4.304-0.501,8.391-1.896,12.146-4.156c0.191-0.1,0.357-0.26,0.461-0.458  c0.11-0.204,0.146-0.433,0.115-0.649V2.076C43.387,1.484,42.908,1.005,42.314,1.005z M13.485,23.224h5.026v21.785  c-1.751-0.566-3.436-1.296-5.026-2.187V23.224z M10.116,21.082l3.017-4.908c0.957,0.382,1.986,0.583,3.024,0.583  c1.061,0,2.088-0.199,3.021-0.58l3.004,4.902H10.116V21.082z M16.157,11.258l1.856,3.028c-1.166,0.376-2.484,0.378-3.71-0.013  L16.157,11.258z M9.256,23.224h2.088v18.293c-0.718-0.491-1.419-1.008-2.088-1.566V23.224z M23.032,46.093  c-0.799-0.121-1.592-0.283-2.379-0.471V23.224h2.379V46.093z M41.244,42.592c-3.016,1.736-6.25,2.887-9.643,3.427V24.793h4.821  v-2.143h-4.821v-2.104h2.995v-2.143h-2.995v-2.092h2.947v-2.143h-2.947v-2.076h4.821V9.951h-4.821V8.076h2.881V5.933h-2.881V3.15  h9.643V42.592z"></path></g>
</svg>
</g></svg></svg>